HIERARCHY
ROOT Hips
{
 OFFSET 0.000000 0.000000 0.000000
 CHANNELS 6 Xposition Yposition Zposition Yrotation Xrotation Zrotation
 JOINT Chest
 {
  OFFSET 0.000000 16.280000 -0.014500
  CHANNELS 3 Yrotation Xrotation Zrotation
  JOINT Chest2
  {
   OFFSET 0.000000 10.601900 0.029500
   CHANNELS 3 Yrotation Xrotation Zrotation
   JOINT Chest3
   {
    OFFSET 0.000000 10.554800 0.000000
    CHANNELS 3 Yrotation Xrotation Zrotation
    JOINT Chest4
    {
     OFFSET 0.000000 10.544000 0.000000
     CHANNELS 3 Yrotation Xrotation Zrotation
     JOINT Neck
     {
      OFFSET 0.000000 16.186500 0.000000
      CHANNELS 3 Yrotation Xrotation Zrotation
      JOINT Head
      {
       OFFSET 0.000000 9.876700 0.062400
       CHANNELS 3 Yrotation Xrotation Zrotation
       End Site
       {
        OFFSET 0.000000 18.635100 0.032900
       }
      }
     }
     JOINT RightCollar
     {
      OFFSET -3.550000 10.761000 0.000000
      CHANNELS 3 Yrotation Xrotation Zrotation
      JOINT RightShoulder
      {
       OFFSET -16.915100 0.000000 0.000000
       CHANNELS 3 Yrotation Xrotation Zrotation
       JOINT RightElbow
       {
        OFFSET 0.000000 -31.241900 0.000000
        CHANNELS 3 Yrotation Xrotation Zrotation
        JOINT RightWrist
        {
         OFFSET 0.000000 -25.690800 0.013700
         CHANNELS 3 Yrotation Xrotation Zrotation
         End Site
         {
          OFFSET 0.000000 -19.336200 0.000000
         }
        }
       }
      }
     }
     JOINT LeftCollar
     {
      OFFSET 3.550000 10.761000 0.000000
      CHANNELS 3 Yrotation Xrotation Zrotation
      JOINT LeftShoulder
      {
       OFFSET 16.915100 0.000000 0.000000
       CHANNELS 3 Yrotation Xrotation Zrotation
       JOINT LeftElbow
       {
        OFFSET 0.000000 -31.241900 0.000000
        CHANNELS 3 Yrotation Xrotation Zrotation
        JOINT LeftWrist
        {
         OFFSET 0.000000 -25.690800 0.013700
         CHANNELS 3 Yrotation Xrotation Zrotation
         End Site
         {
          OFFSET 0.000000 -19.336200 0.000000
         }
        }
       }
      }
     }
    }
   }
  }
 }
 JOINT RightHip
 {
  OFFSET -13.350800 0.071600 0.007200
  CHANNELS 3 Yrotation Xrotation Zrotation
  JOINT RightKnee
  {
   OFFSET 0.000000 -49.946400 0.002700
   CHANNELS 3 Yrotation Xrotation Zrotation
   JOINT RightAnkle
   {
    OFFSET 0.000000 -42.233900 0.021900
    CHANNELS 3 Yrotation Xrotation Zrotation
    JOINT RightToe
    {
     OFFSET 0.000000 -11.862800 19.724700
     CHANNELS 3 Yrotation Xrotation Zrotation
     End Site
     {
      OFFSET 0.000000 -1.715400 7.529500
     }
    }
   }
  }
 }
 JOINT LeftHip
 {
  OFFSET 13.350800 0.071600 0.007200
  CHANNELS 3 Yrotation Xrotation Zrotation
  JOINT LeftKnee
  {
   OFFSET 0.000000 -49.946400 0.002700
   CHANNELS 3 Yrotation Xrotation Zrotation
   JOINT LeftAnkle
   {
    OFFSET 0.000000 -42.233900 0.021900
    CHANNELS 3 Yrotation Xrotation Zrotation
    JOINT LeftToe
    {
     OFFSET 0.000000 -11.862800 19.724700
     CHANNELS 3 Yrotation Xrotation Zrotation
     End Site
     {
      OFFSET 0.000000 -1.715400 7.529500
     }
    }
   }
  }
 }
}
MOTION
Frames: 9
Frame Time: 0.008333
0.000000 103.775900 0.000000 0.000000 -5.767877 0.000000 0.000000 11.653817 0.000000 0.000000 -5.885947 0.000000 0.000000 -0.000000 0.000000 0.000000 -0.000000 0.000000 0.000000 12.528835 0.000000 0.000000 0.711642 0.000000 0.000000 -0.000000 0.000000 0.000000 0.000000 -90.000000 0.000000 -2.309062 0.000000 0.000000 2.309062 0.000000 0.000000 -0.000000 0.000000 0.000000 -0.000000 90.000000 0.000000 -2.309062 0.000000 0.000000 2.309062 0.000000 0.000000 8.520406 0.000000 0.000000 1.905762 0.000000 -0.000000 -4.658285 0.000000 0.000000 -0.000000 0.000000 0.000000 8.520406 0.000000 0.000000 1.905762 0.000000 -0.000000 -4.658285 0.000000 0.000000 -0.000000 0.000000
45.020677 153.414258 41.086644 -179.097325 -17.889242 -3.511977 -2.401780 10.186172 1.964835 -0.164570 0.655158 0.152169 -0.283822 1.128930 0.260448 -2.203379 9.412757 2.014477 -3.987851 17.037483 1.437485 -4.572329 -7.714887 2.442604 3.608523 5.123390 -3.593883 18.937595 -13.228340 -5.591730 41.632912 -33.517179 -30.384375 -6.737915 -3.984340 -27.693202 -2.937958 7.339753 -0.160834 -12.297480 -17.376706 2.178524 -50.951442 -33.058294 36.331742 -9.407335 -6.344954 23.551902 -2.640970 -51.616551 0.794936 -171.092393 71.713666 -160.181341 0.510395 -37.438055 -4.629011 0.061361 -0.178172 0.031582 -9.890329 -50.481041 7.371875 157.243068 68.724583 153.878373 0.820176 -37.947567 -3.204946 0.073682 0.192514 0.044157
49.088465 146.036553 40.294328 -179.084970 -17.886606 -3.574659 -2.401127 10.187249 2.025677 -0.164744 0.654809 0.152118 -0.282642 1.128125 0.260800 -2.209103 9.407499 2.013352 -3.986027 17.044603 1.436998 -4.569497 -7.696138 2.437722 3.615174 5.124958 -3.601621 18.941596 -13.230727 -5.587562 41.624426 -33.516471 -30.377745 -6.740503 -3.987727 -27.684854 -2.933763 7.334886 -0.162053 -12.290062 -17.370120 2.168055 -50.961803 -33.052388 36.334850 -9.403380 -6.335656 23.546845 -2.728412 -51.630871 0.894537 -171.105352 71.687583 -160.193842 0.544877 -37.499787 -4.643041 0.038042 -0.122895 0.022873 -9.973663 -50.461960 7.466009 157.229910 68.740452 153.866410 0.844223 -37.876179 -3.208659 0.051820 0.129730 0.031180
52.441695 139.960992 39.641311 -179.085395 -17.885523 -3.633650 -2.388680 10.189754 2.088836 -0.166748 0.653103 0.151096 -0.281447 1.128210 0.261223 -2.224645 9.396930 2.005721 -3.973263 17.059152 1.437226 -4.567375 -7.696160 2.438060 3.642277 5.124794 -3.604265 18.951914 -13.233879 -5.592527 41.611583 -33.508949 -30.352979 -6.753000 -3.986806 -27.691094 -2.918922 7.340135 -0.157220 -12.287557 -17.367612 2.163181 -50.964726 -33.049950 36.333938 -9.399798 -6.330460 23.545458 -2.798503 -51.642508 0.990195 -171.115253 71.665775 -160.199164 0.581517 -37.560064 -4.653229 0.014161 -0.068685 0.008515 -10.047699 -50.442968 7.559901 157.220698 68.753546 153.857409 0.880897 -37.804721 -3.215323 0.021799 0.066220 0.013114
54.859520 135.572439 39.169986 -179.074582 -17.880719 -3.664465 -2.399013 10.182364 2.114891 -0.162837 0.657291 0.152015 -0.283890 1.126620 0.259928 -2.228504 9.392042 2.004023 -3.970914 17.068558 1.429290 -4.560446 -7.685665 2.439342 3.662593 5.123847 -3.608168 18.945468 -13.233676 -5.590984 41.609265 -33.505211 -30.340660 -6.756779 -3.987652 -27.686075 -2.910739 7.343531 -0.152647 -12.285226 -17.367575 2.160150 -50.965730 -33.048253 36.330908 -9.399241 -6.327879 23.540466 -2.837594 -51.657122 1.032860 -171.125464 71.647846 -160.203500 0.593691 -37.591320 -4.659096 0.007018 -0.042579 0.004220 -10.095644 -50.434310 7.607773 157.215074 68.765496 153.851701 0.889162 -37.765831 -3.216858 0.013661 0.034638 0.008218
56.389251 132.800665 38.871844 -179.065597 -17.876235 -3.692514 -2.404730 10.176848 2.140861 -0.164792 0.655991 0.150422 -0.284340 1.125249 0.259539 -2.226960 9.394572 2.004424 -3.967067 17.070194 1.425581 -4.553697 -7.674619 2.433793 3.675465 5.119566 -3.612292 18.941513 -13.233068 -5.590895 41.607304 -33.503644 -30.331400 -6.758195 -3.984308 -27.678473 -2.907004 7.343495 -0.150256 -12.285089 -17.372257 2.154416 -50.973210 -33.042105 36.331829 -9.401438 -6.321946 23.527418 -2.874134 -51.665776 1.072647 -171.114293 71.632945 -160.184533 0.612044 -37.622704 -4.667788 0.002749 -0.016855 0.001653 -10.138770 -50.426299 7.652215 157.211884 68.774412 153.848052 0.899312 -37.738361 -3.219098 0.004019 0.012925 0.002417
57.229004 131.275538 38.707888 -179.058240 -17.869383 -3.701078 -2.409321 10.169637 2.148450 -0.165420 0.651206 0.151026 -0.287261 1.125013 0.259446 -2.231791 9.388512 2.004457 -3.960612 17.081607 1.420051 -4.533361 -7.657389 2.412157 3.687937 5.126481 -3.616770 18.942435 -13.232693 -5.594870 41.597914 -33.504905 -30.321505 -6.754045 -3.978619 -27.667483 -2.894522 7.349501 -0.153339 -12.297219 -17.375719 2.155832 -50.964598 -33.032936 36.322124 -9.399409 -6.320191 23.520513 -2.884213 -51.675417 1.082684 -171.111264 71.626587 -160.177440 0.614719 -37.633018 -4.668394 0.002572 -0.009258 0.001547 -10.155644 -50.429023 7.666299 157.213365 68.781440 153.851932 0.897601 -37.722576 -3.215440 0.003357 0.007316 0.002019
57.629169 130.548690 38.629633 -179.053917 -17.861376 -3.704039 -2.410723 10.162221 2.151821 -0.164223 0.650398 0.151493 -0.289106 1.122213 0.257349 -2.232604 9.373767 2.004641 -3.960001 17.098837 1.417166 -4.523484 -7.649349 2.403655 3.688150 5.142684 -3.615840 18.951755 -13.235257 -5.604539 41.595678 -33.505865 -30.312789 -6.759132 -3.966666 -27.660438 -2.888119 7.360245 -0.155165 -12.310673 -17.377525 2.159065 -50.962906 -33.017130 36.314527 -9.384847 -6.321405 23.520049 -2.888119 -51.685524 1.086781 -171.105161 71.625531 -160.173164 0.616073 -37.637406 -4.664007 0.000078 -0.005050 0.000047 -10.163611 -50.434921 7.673799 157.219207 68.784984 153.856806 0.897085 -37.716498 -3.212156 0.001848 0.002860 0.001111
57.793173 130.250986 38.596274 -179.049727 -17.856211 -3.704366 -2.410462 10.157695 2.153716 -0.166225 0.649614 0.150670 -0.288529 1.121497 0.258121 -2.233890 9.365156 2.002272 -3.956529 17.107941 1.414174 -4.520209 -7.643155 2.399805 3.695697 5.142857 -3.621423 18.952487 -13.234268 -5.605706 41.586353 -33.505236 -30.293322 -6.762197 -3.958933 -27.663269 -2.888187 7.363908 -0.157545 -12.315788 -17.379908 2.159344 -50.960761 -33.008204 36.308805 -9.383458 -6.321300 23.525195 -2.887906 -51.691392 1.085303 -171.113934 71.624284 -160.180795 0.612822 -37.642166 -4.661877 -0.001066 -0.002950 -0.000641 -10.167312 -50.438625 7.675244 157.215494 68.789742 153.854391 0.895227 -37.710475 -3.210492 0.001288 0.000204 0.000775
